<svg width="400" height="400" viewBox="0 0 400 400" fill="none" xmlns="http://www.w3.org/2000/svg">
<rect width="400" height="400" fill="white"/>
<!-- QR Code Pattern -->
<rect x="50" y="50" width="70" height="70" fill="black"/>
<rect x="60" y="60" width="50" height="50" fill="white"/>
<rect x="70" y="70" width="30" height="30" fill="black"/>

<rect x="280" y="50" width="70" height="70" fill="black"/>
<rect x="290" y="60" width="50" height="50" fill="white"/>
<rect x="300" y="70" width="30" height="30" fill="black"/>

<rect x="50" y="280" width="70" height="70" fill="black"/>
<rect x="60" y="290" width="50" height="50" fill="white"/>
<rect x="70" y="300" width="30" height="30" fill="black"/>

<!-- Data pattern -->
<rect x="150" y="150" width="10" height="10" fill="black"/>
<rect x="170" y="150" width="10" height="10" fill="black"/>
<rect x="190" y="150" width="10" height="10" fill="black"/>
<rect x="210" y="150" width="10" height="10" fill="black"/>
<rect x="230" y="150" width="10" height="10" fill="black"/>

<rect x="150" y="170" width="10" height="10" fill="black"/>
<rect x="190" y="170" width="10" height="10" fill="black"/>
<rect x="230" y="170" width="10" height="10" fill="black"/>

<rect x="150" y="190" width="10" height="10" fill="black"/>
<rect x="170" y="190" width="10" height="10" fill="black"/>
<rect x="210" y="190" width="10" height="10" fill="black"/>
<rect x="230" y="190" width="10" height="10" fill="black"/>

<rect x="170" y="210" width="10" height="10" fill="black"/>
<rect x="190" y="210" width="10" height="10" fill="black"/>
<rect x="210" y="210" width="10" height="10" fill="black"/>

<rect x="150" y="230" width="10" height="10" fill="black"/>
<rect x="190" y="230" width="10" height="10" fill="black"/>
<rect x="230" y="230" width="10" height="10" fill="black"/>

<text x="200" y="380" text-anchor="middle" font-family="Arial" font-size="14" fill="#666">老板微信二维码</text>
</svg>